<svg width="130" height="59" viewBox="0 0 130 59" fill="none" xmlns="http://www.w3.org/2000/svg">
<path d="M124.405 47.247H122.919L122.449 45.6799C122.371 45.3665 122.254 45.0923 122.176 44.9356C122.097 44.7397 121.941 44.6222 121.784 44.5438C121.628 44.4655 121.393 44.3871 121.158 44.3871H120.141V47.247H118.733V40.2344H121.55C122.41 40.2344 123.036 40.3911 123.427 40.7437C123.819 41.0963 124.053 41.6056 124.053 42.3107C124.053 42.7809 123.936 43.1334 123.701 43.4077C123.467 43.6819 123.114 43.8778 122.684 43.9562C123.036 44.0737 123.271 44.2696 123.467 44.5438C123.623 44.818 123.819 45.2098 123.936 45.6799L124.405 47.247ZM121.628 43.2902C121.941 43.2902 122.176 43.2118 122.371 43.0551C122.567 42.8984 122.684 42.6242 122.684 42.3107C122.684 41.9973 122.567 41.7231 122.371 41.5664C122.176 41.4097 121.941 41.3313 121.628 41.3313H120.18V43.2902H121.628Z" fill="#070416"/>
<path d="M114.586 47.247C113.686 47.247 113.06 47.0511 112.669 46.6985C112.278 46.3068 112.082 45.7975 112.082 45.0923V42.4283C112.082 41.7231 112.278 41.1746 112.669 40.822C113.06 40.4303 113.686 40.2736 114.586 40.2736H116.933V41.3705H114.586C114.234 41.3705 113.96 41.4489 113.764 41.6447C113.608 41.8014 113.491 42.0757 113.491 42.4674V43.251H116.464V44.3479H113.491V45.1315C113.491 45.484 113.569 45.7583 113.764 45.9542C113.96 46.1109 114.234 46.2284 114.586 46.2284H116.933V47.3254H114.586V47.247Z" fill="#070416"/>
<path d="M110.204 40.2344V45.6016C110.204 46.15 110.087 46.5418 109.891 46.816C109.657 47.0903 109.305 47.247 108.835 47.247H107.857L105.784 42.4674V47.247H104.454V40.2344H106.058L108.6 46.0325H108.64C108.757 46.0325 108.835 45.9933 108.874 45.8758C108.913 45.7583 108.953 45.6016 108.953 45.3273V40.1952H110.204V40.2344Z" fill="#070416"/>
<path d="M99.7593 47.3645C98.8204 47.3645 98.0771 47.1686 97.5685 46.7377C97.0599 46.3067 96.8252 45.6799 96.8252 44.818V42.6633C96.8252 41.8406 97.0599 41.1746 97.5685 40.7436C98.0771 40.3127 98.8204 40.0776 99.7593 40.0776C100.463 40.0776 101.011 40.1952 101.442 40.391C101.872 40.6261 102.224 40.9395 102.498 41.3705L101.442 42.1148C101.246 41.7622 101.011 41.5272 100.776 41.4096C100.542 41.2529 100.229 41.1746 99.7984 41.1746C99.2507 41.1746 98.8595 41.2921 98.6248 41.5272C98.39 41.7622 98.2727 42.1148 98.2727 42.6241V44.7788C98.2727 45.249 98.39 45.6407 98.6248 45.8758C98.8595 46.1108 99.2507 46.2284 99.7984 46.2284C100.268 46.2284 100.62 46.15 100.855 45.9933C101.089 45.8366 101.207 45.6015 101.207 45.2881V44.9747C101.207 44.5438 101.011 44.3479 100.62 44.3479H99.4854V43.2509H101.011C101.559 43.2509 101.95 43.3685 102.185 43.6035C102.42 43.8386 102.576 44.2304 102.576 44.7397V45.3665C102.576 45.9541 102.341 46.4242 101.833 46.7768C101.285 47.1686 100.62 47.3645 99.7593 47.3645Z" fill="#070416"/>
<path d="M93.3823 40.2344H94.7907V47.247H93.3823V40.2344Z" fill="#070416"/>
<path d="M88.6488 47.3645C88.1794 47.3645 87.749 47.3253 87.4361 47.2078C87.1231 47.0903 86.8493 46.9727 86.6145 46.7769C86.3798 46.581 86.1842 46.3459 85.9495 46.0325L86.8884 45.249C87.1622 45.6407 87.4361 45.915 87.6708 46.0717C87.9447 46.2284 88.2576 46.3067 88.6488 46.3067C89.1574 46.3067 89.5486 46.2284 89.7833 46.0717C90.0181 45.915 90.1354 45.6799 90.1354 45.3273C90.1354 45.1706 90.0963 45.0139 89.979 44.8964C89.8616 44.7788 89.666 44.6613 89.3921 44.583C89.1183 44.5046 88.7271 44.3871 88.1794 44.2696C87.5534 44.152 87.0449 43.917 86.7319 43.5644C86.4189 43.2118 86.2624 42.7417 86.2624 42.1932C86.2624 41.7622 86.3798 41.4097 86.5754 41.0962C86.771 40.7828 87.084 40.5478 87.4752 40.3911C87.8664 40.2344 88.2967 40.156 88.8444 40.156C89.5095 40.156 90.0572 40.2735 90.4484 40.4694C90.8396 40.6653 91.1526 40.9395 91.4264 41.3313L90.4875 42.0757C90.2919 41.8798 90.0963 41.7231 89.979 41.6055C89.8616 41.488 89.7051 41.4097 89.5095 41.3313C89.353 41.253 89.1183 41.253 88.8836 41.253C88.4923 41.253 88.2185 41.3313 88.0229 41.488C87.8273 41.6447 87.749 41.8798 87.749 42.1932C87.749 42.5066 87.8664 42.7025 88.1011 42.8592C88.3359 42.9767 88.6488 43.0943 89.04 43.1726C89.6269 43.2901 90.0572 43.4077 90.4093 43.5252C90.7614 43.6427 91.0352 43.8386 91.27 44.152C91.5047 44.4263 91.622 44.818 91.622 45.2881C91.622 45.9933 91.3873 46.5026 90.8787 46.8552C90.3702 47.1686 89.6269 47.3645 88.6488 47.3645Z" fill="#070416"/>
<path d="M82.2721 47.247C81.3723 47.247 80.7463 47.0511 80.3551 46.6985C79.9639 46.3068 79.7683 45.7975 79.7683 45.0923V42.4283C79.7683 41.7231 79.9639 41.1746 80.3551 40.822C80.7463 40.4303 81.3723 40.2736 82.2721 40.2736H84.6194V41.3705H82.2721C81.92 41.3705 81.6461 41.4489 81.4505 41.6447C81.294 41.8014 81.1767 42.0757 81.1767 42.4674V43.251H84.1499V44.3479H81.1767V45.1315C81.1767 45.484 81.2549 45.7583 81.4505 45.9542C81.6461 46.1109 81.92 46.2284 82.2721 46.2284H84.6194V47.3254H82.2721V47.247Z" fill="#070416"/>
<path d="M72.3743 40.2344H74.9954C75.7778 40.2344 76.4038 40.3519 76.8732 40.587C77.3427 40.822 77.6556 41.1746 77.8512 41.6839C78.0469 42.1932 78.1642 42.8592 78.1642 43.7603C78.1642 44.6222 78.0469 45.3273 77.8512 45.8366C77.6556 46.3459 77.3035 46.6985 76.8732 46.9336C76.4038 47.1686 75.8169 47.2862 74.9954 47.2862H72.3743V40.2344ZM74.9954 46.15C75.4257 46.15 75.7778 46.0717 76.0517 45.915C76.2864 45.7583 76.482 45.5232 76.5994 45.1706C76.7167 44.818 76.7558 44.3479 76.7558 43.7603C76.7558 43.1726 76.7167 42.7025 76.5994 42.3499C76.482 41.9973 76.3255 41.7623 76.0517 41.6056C75.8169 41.4489 75.4648 41.3705 74.9954 41.3705H73.8218V46.1892H74.9954V46.15Z" fill="#070416"/>
<path d="M115.76 32.83L113.452 28.834H115.017L116.503 31.5372L117.951 28.834H119.515L117.168 32.83V35.8466H115.76V32.83Z" fill="#070416"/>
<path d="M112.669 35.8466H111.183L110.713 34.2795C110.635 33.9661 110.517 33.6919 110.439 33.5352C110.361 33.3393 110.205 33.2218 110.048 33.1434C109.892 33.0651 109.657 32.9867 109.422 32.9867H108.405V35.8466H106.997V28.834H109.813C110.674 28.834 111.3 28.9907 111.691 29.3433C112.082 29.6959 112.317 30.2052 112.317 30.9103C112.317 31.3805 112.2 31.7331 111.965 32.0073C111.73 32.2815 111.378 32.4774 110.948 32.5558C111.3 32.6733 111.535 32.8692 111.73 33.1434C111.926 33.4176 112.082 33.8094 112.2 34.2795L112.669 35.8466ZM109.892 31.8898C110.205 31.8898 110.439 31.8114 110.635 31.6547C110.83 31.498 110.948 31.2238 110.948 30.9103C110.948 30.5969 110.83 30.3227 110.635 30.166C110.439 30.0093 110.205 29.9309 109.892 29.9309H108.444V31.8898H109.892Z" fill="#070416"/>
<path d="M103.045 35.8466C102.185 35.8466 101.559 35.6507 101.207 35.2981C100.855 34.9064 100.659 34.3971 100.659 33.6919V28.834H102.067V33.6527C102.067 34.0053 102.146 34.2795 102.302 34.4754C102.459 34.6321 102.693 34.7497 103.045 34.7497H105.275V35.8466H103.045Z" fill="#070416"/>
<path d="M96.7469 35.8466C95.8471 35.8466 95.2212 35.6507 94.83 35.2981C94.4388 34.9064 94.2432 34.3971 94.2432 33.6919V31.0279C94.2432 30.3227 94.4388 29.7742 94.83 29.4216C95.2212 29.0299 95.8471 28.8732 96.7469 28.8732H99.0942V29.9701H96.7469C96.3948 29.9701 96.121 30.0485 95.9254 30.2444C95.7689 30.4011 95.6515 30.6753 95.6515 31.0671V31.8506H98.6248V32.9475H95.6515V33.7311C95.6515 34.0837 95.7298 34.3579 95.9254 34.5538C96.121 34.7105 96.3948 34.828 96.7469 34.828H99.0942V35.925H96.7469V35.8466Z" fill="#070416"/>
<path d="M93.0694 28.834L91.4654 35.8466H91.0742C90.683 35.8466 90.37 35.8074 90.1353 35.6899C89.9006 35.6115 89.7441 35.4548 89.5876 35.2198C89.4311 34.9847 89.2746 34.6713 89.1572 34.2404L88.6487 32.7908L88.1792 34.2404C88.0227 34.6713 87.9054 34.9847 87.7489 35.2198C87.5924 35.4548 87.3968 35.6115 87.1621 35.6899C86.9273 35.7682 86.6535 35.8466 86.2623 35.8466H85.8711L84.2671 28.834H85.5972L86.8882 34.4754C86.9665 34.3971 87.0056 34.2795 87.0838 34.0445L88.6878 29.5783L90.2918 34.0445C90.37 34.2404 90.4483 34.3971 90.4874 34.4754L91.7784 28.834H93.0694Z" fill="#070416"/>
<path d="M80.7462 35.8466C79.8464 35.8466 79.2205 35.6507 78.8293 35.2981C78.438 34.9064 78.2424 34.3971 78.2424 33.6919V31.0279C78.2424 30.3227 78.438 29.7742 78.8293 29.4216C79.2205 29.0299 79.8464 28.8732 80.7462 28.8732H83.0935V29.9701H80.7462C80.3941 29.9701 80.1203 30.0485 79.9246 30.2444C79.7682 30.4011 79.6508 30.6753 79.6508 31.0671V31.8506H82.624V32.9475H79.6508V33.7311C79.6508 34.0837 79.729 34.3579 79.9246 34.5538C80.1203 34.7105 80.3941 34.828 80.7462 34.828H83.0935V35.925H80.7462V35.8466Z" fill="#070416"/>
<path d="M73.8609 35.9641C73.3523 35.9641 72.922 35.8858 72.609 35.7291C72.296 35.5724 72.0222 35.3373 71.7092 34.9847L72.5308 34.1228C72.7264 34.3971 72.922 34.5929 73.1176 34.6713C73.3132 34.7888 73.5479 34.828 73.8218 34.828C74.2521 34.828 74.5651 34.7497 74.7998 34.5538C75.0345 34.3579 75.1128 34.0837 75.1128 33.7311V28.834H76.5211V33.7311C76.5211 34.4754 76.2864 35.0239 75.8561 35.3765C75.4257 35.7682 74.7607 35.9641 73.8609 35.9641Z" fill="#070416"/>
<path d="M128.122 22.8008H125.384L124.914 24.4462H123.506L125.227 18.8439C125.345 18.4522 125.462 18.1387 125.618 17.9037C125.736 17.6686 125.892 17.5119 126.088 17.4336C126.283 17.3552 126.518 17.2769 126.792 17.2769C127.066 17.2769 127.301 17.316 127.457 17.4336C127.653 17.5119 127.809 17.6686 127.927 17.9037C128.083 18.1387 128.2 18.4522 128.318 18.8439L130.039 24.4462H128.631L128.122 22.8008ZM127.809 21.743L126.988 18.8439C126.949 18.6872 126.87 18.5697 126.753 18.5697C126.636 18.5697 126.596 18.648 126.518 18.8439L125.697 21.743H127.809Z" fill="#070416"/>
<path d="M120.415 17.4336H121.824V24.4462H120.415V17.4336Z" fill="#070416"/>
<path d="M115.682 24.5637C115.212 24.5637 114.782 24.5245 114.469 24.407C114.156 24.2895 113.882 24.172 113.647 23.9761C113.413 23.7802 113.217 23.5451 112.982 23.2317L113.921 22.4482C114.195 22.84 114.469 23.1142 114.704 23.2709C114.977 23.4276 115.29 23.506 115.682 23.506C116.19 23.506 116.581 23.4276 116.816 23.2709C117.051 23.1142 117.168 22.8791 117.168 22.5265C117.168 22.3698 117.129 22.2131 117.012 22.0956C116.894 21.9781 116.699 21.8605 116.425 21.7822C116.151 21.7038 115.76 21.5863 115.212 21.4688C114.586 21.3512 114.078 21.1162 113.765 20.7636C113.452 20.411 113.295 19.9409 113.295 19.3924C113.295 18.9615 113.413 18.6089 113.608 18.2955C113.804 17.9821 114.117 17.747 114.508 17.5903C114.899 17.4336 115.329 17.3552 115.877 17.3552C116.542 17.3552 117.09 17.4728 117.481 17.6686C117.872 17.8645 118.185 18.1388 118.459 18.5305L117.52 19.2749C117.325 19.079 117.129 18.9223 117.012 18.8048C116.894 18.6872 116.738 18.6089 116.542 18.5305C116.386 18.4522 116.151 18.4522 115.916 18.4522C115.525 18.4522 115.251 18.5305 115.056 18.6872C114.86 18.8439 114.782 19.079 114.782 19.3924C114.782 19.7058 114.899 19.9017 115.134 20.0584C115.369 20.1759 115.682 20.2935 116.073 20.3718C116.66 20.4894 117.09 20.6069 117.442 20.7244C117.794 20.8419 118.068 21.0378 118.303 21.3512C118.537 21.6255 118.655 22.0172 118.655 22.4874C118.655 23.1925 118.42 23.7018 117.911 24.0544C117.403 24.407 116.66 24.5637 115.682 24.5637Z" fill="#070416"/>
<path d="M109.305 24.4462C108.405 24.4462 107.779 24.2503 107.388 23.8977C106.997 23.506 106.801 22.9967 106.801 22.2915V19.6275C106.801 18.9223 106.997 18.3738 107.388 18.0213C107.779 17.6295 108.405 17.4728 109.305 17.4728H111.652V18.5697H109.305C108.953 18.5697 108.679 18.6481 108.483 18.844C108.327 19.0007 108.209 19.2749 108.209 19.6667V20.4502H111.183V21.5471H108.209V22.3307C108.209 22.6833 108.288 22.9575 108.483 23.1534C108.679 23.3101 108.953 23.4276 109.305 23.4276H111.652V24.5246H109.305V24.4462Z" fill="#070416"/>
<path d="M104.962 17.4336V22.8008C104.962 23.3493 104.845 23.741 104.649 24.0153C104.415 24.2895 104.062 24.4462 103.593 24.4462H102.615L100.542 19.6667V24.4462H99.2114V17.4336H100.815L103.358 23.2317H103.397C103.515 23.2317 103.593 23.1926 103.632 23.075C103.671 22.9575 103.71 22.8008 103.71 22.5266V17.4336H104.962Z" fill="#070416"/>
<path d="M94.3212 24.5637C93.3823 24.5637 92.6782 24.3678 92.1696 23.9369C91.7001 23.5059 91.4263 22.8791 91.4263 22.0172V19.8625C91.4263 19.0398 91.661 18.3738 92.1696 17.9429C92.6782 17.5119 93.3823 17.2769 94.3212 17.2769C95.2602 17.2769 95.9643 17.5119 96.4338 17.9429C96.9424 18.3738 97.1771 19.0006 97.1771 19.8625V22.0172C97.1771 22.8399 96.9424 23.5059 96.4338 23.9369C95.9643 24.3678 95.2602 24.5637 94.3212 24.5637ZM94.3212 23.4668C94.7907 23.4668 95.1428 23.3492 95.3775 23.1142C95.6122 22.8791 95.7687 22.4873 95.7687 22.0172V19.8625C95.7687 19.3924 95.6514 19.0398 95.3775 18.8047C95.1428 18.5697 94.7907 18.413 94.3212 18.413C93.8518 18.413 93.4997 18.5305 93.2259 18.8047C92.9911 19.0398 92.8738 19.3924 92.8738 19.8625V22.0172C92.8738 22.4873 92.9911 22.8399 93.2259 23.1142C93.4997 23.3492 93.8518 23.4668 94.3212 23.4668Z" fill="#070416"/>
<path d="M84.0325 17.4336H86.6536C87.436 17.4336 88.062 17.5511 88.5314 17.7862C89.0009 18.0212 89.3138 18.3738 89.5094 18.8831C89.7051 19.3924 89.8224 20.0584 89.8224 20.9595C89.8224 21.8214 89.7051 22.5266 89.5094 23.0359C89.3138 23.5451 88.9618 23.8977 88.5314 24.1328C88.062 24.3679 87.4751 24.4854 86.6536 24.4854H84.0325V17.4336ZM86.6536 23.3493C87.0839 23.3493 87.436 23.2709 87.7099 23.1142C87.9446 22.9575 88.1402 22.7224 88.2576 22.3698C88.3749 22.0173 88.4141 21.5471 88.4141 20.9595C88.4141 20.3718 88.3749 19.9017 88.2576 19.5491C88.1402 19.1965 87.9837 18.9615 87.7099 18.8048C87.4751 18.6481 87.1231 18.5697 86.6536 18.5697H85.48V23.3884H86.6536V23.3493Z" fill="#070416"/>
<path d="M81.8416 17.4336V22.8008C81.8416 23.3493 81.7243 23.741 81.5287 24.0153C81.2939 24.2895 80.9419 24.4462 80.4724 24.4462H79.4944L77.4209 19.6667V24.4462H76.0908V17.4336H77.6948L80.2377 23.2317H80.2768C80.3942 23.2317 80.4724 23.1926 80.5115 23.075C80.5506 22.9575 80.5898 22.8008 80.5898 22.5266V17.4336H81.8416Z" fill="#070416"/>
<path d="M72.3743 17.4336H73.7826V24.4462H72.3743V17.4336Z" fill="#070416"/>
<path d="M59.7774 37.5312C59.7774 38.6673 59.973 39.5684 60.4033 40.2736C60.8728 40.9788 61.6552 41.7231 62.7506 42.585L57.3519 47.2862C54.9655 46.0717 53.3224 44.4655 52.4617 42.4283C51.4446 44.0345 50.1144 45.249 48.5496 46.0717C46.9847 46.8552 45.0287 47.247 42.7205 47.247C38.8475 47.247 35.7569 45.9542 33.4097 43.4077C31.1406 40.7829 30.0061 37.2961 30.0061 32.9084V30.9495C30.0061 28.3247 30.4756 25.9741 31.4145 23.8194C32.3534 21.6255 33.8009 19.9017 35.6787 18.6089C37.6348 17.2769 39.9429 16.6109 42.6814 16.6109C46.5544 16.6109 49.5667 17.8254 51.6793 20.2151V9.75498C51.6793 8.61886 51.4446 7.71779 51.0142 7.01262C50.5839 6.30744 49.8406 5.56308 48.7061 4.70119L54.1048 0C56.2174 1.05777 57.6648 2.31142 58.4864 3.72178C59.3079 5.09296 59.7383 7.01262 59.7383 9.48074V37.5312H59.7774ZM51.7184 27.9329C50.7795 24.5246 48.5496 22.84 45.1069 22.84C42.877 22.84 41.1557 23.6627 39.9038 25.2689C38.691 26.836 38.1042 28.7556 38.1042 30.9887V32.9867C38.1042 35.259 38.691 37.1786 39.9038 38.7457C41.1165 40.3127 42.8379 41.0963 45.1069 41.0963C48.5887 41.0963 50.7795 39.4117 51.7184 36.0033V27.9329Z" fill="#070416"/>
<path d="M20.1474 59L14.8269 53.241C17.448 50.8121 17.6045 47.482 17.6436 47.247V17.3552H25.4679V47.247C25.4288 47.9913 25.2723 54.2204 20.1474 59Z" fill="#070416"/>
<path d="M9.66303 47.4037C4.61639 42.3107 4.49902 36.4342 4.49902 35.8074V17.2769H12.3233V35.7682C12.3233 36.0425 12.5189 39.1374 15.2574 41.919L9.66303 47.4037Z" fill="#070416"/>
<path d="M2.22991 4.70117C1.99518 5.75894 1.40837 7.40436 0 8.73636L4.53807 13.6334C7.94162 10.4993 8.76317 6.58165 8.95877 4.74035H2.22991V4.70117Z" fill="#E90006"/>
<path d="M15.3747 4.70117C15.14 5.75894 14.5531 7.40436 13.1448 8.73636L17.6828 13.6334C21.0864 10.4993 21.9079 6.58165 22.1035 4.74035H15.3747V4.70117Z" fill="#E90006"/>
</svg>
